<svg width="300" height="300" viewBox="0 0 300 300" fill="none" xmlns="http://www.w3.org/2000/svg">
<path fill-rule="evenodd" clip-rule="evenodd" d="M61.2518 278.807C53.7319 277.626 46.6247 274.629 40.8643 269.491C33.1059 262.571 29 252.817 29 241.966C29 219.762 47.6748 205.294 65.1376 199.191L65.1651 199.181L65.6794 199.003L65.7073 198.994C67.2885 198.456 70.9102 196.269 76.4127 190.539C75.9141 187.05 74.1587 183.763 71.2977 181.387L71.0921 181.219C47.7272 162.373 35.9679 136.583 35.9679 105.865C35.9679 47.8338 87.2222 0 148.4 0C211.485 0 260.832 45.596 260.832 107.856C260.832 121.91 258.263 135.094 252.922 147.114C254.056 150.372 254.716 153.579 255.063 156.492C256.244 166.407 254.418 176.918 250.547 186.456C248.403 191.74 245.516 197.007 241.861 201.997C256.991 208.692 271.675 221.676 271.675 241.054C271.675 251.606 267.611 261.042 260.051 267.726C254.436 272.691 247.534 275.588 240.271 276.774C235.34 281.965 229.076 285.487 222.227 287.325C218.577 288.305 214.852 288.78 211.201 288.841L211.155 288.842L210.635 288.847L210.59 288.847C209.19 288.853 207.788 288.798 206.392 288.685C199.027 294.491 189.608 297.559 179.277 298.651C177.599 298.829 175.926 298.931 174.261 298.954L174.218 298.954L173.681 298.959L173.637 298.959C165.656 298.972 158.214 297.121 151.688 293.438C145.944 296.787 139.454 298.803 132.844 299.602C130.777 299.852 128.711 299.983 126.659 300L126.6 300H126.148L126.135 300C115.886 299.981 104.863 297.003 96.3277 290.273C94.5094 290.502 92.6884 290.633 90.8695 290.658L90.83 290.658L90.3972 290.662L90.3569 290.662C83.8211 290.678 77.428 289.305 71.537 286.335C67.626 284.363 64.1834 281.804 61.2518 278.807Z" fill="#FFFF00"/>
<path fill-rule="evenodd" clip-rule="evenodd" d="M246.374 107.856C246.374 54.2642 204.201 14.4578 148.4 14.4578C94.3699 14.4578 50.4258 56.6309 50.4258 105.865C50.4258 132.48 60.4107 154.042 80.1995 169.99L80.4783 170.218C88.3264 176.702 91.9955 186.594 90.7935 196.21C82.9233 205.292 76.0222 210.755 70.3668 212.68L69.9079 212.839C54.8009 218.119 43.4579 228.898 43.4579 241.966C43.4579 256.114 53.8397 264.79 68.5542 264.936C70.9222 268.515 74.1219 271.447 78.046 273.425C81.7363 275.286 85.8585 276.215 90.3212 276.204L90.6742 276.201C93.8577 276.158 97.2119 275.64 100.704 274.645L101.009 274.556C106.31 281.652 115.977 285.523 126.161 285.542H126.54C128.057 285.53 129.584 285.433 131.109 285.248C139.484 284.236 146.686 280.721 151.329 275.159L151.533 274.91C157.108 281.232 164.574 284.516 173.613 284.501L174.063 284.497C175.267 284.481 176.499 284.406 177.758 284.273C188.973 283.088 196.67 279.343 201.273 273.508L201.475 273.246C204.417 274.01 207.491 274.402 210.531 274.39L210.96 274.385C213.531 274.342 216.071 274.008 218.479 273.362C224.53 271.738 229.468 268.259 232.614 263.131L232.727 262.945L233.18 262.938C247.25 262.617 257.217 254.438 257.217 241.054C257.217 228.416 245.891 218.172 230.922 213.262L230.662 213.175C225.273 211.317 218.736 206.301 211.294 198.047L211.188 197.929C209.812 185.938 213.883 173.501 223.199 164.556L223.66 164.111C238.776 149.369 246.374 130.479 246.374 107.856ZM148.4 27.7263C101.579 27.7263 63.6943 64.0838 63.6943 105.865C63.6943 128.525 71.911 146.269 88.5255 159.659C104.724 172.714 109.027 195.609 98.6721 213.654L98.3714 214.174C96.5049 217.371 94.3987 220.476 91.035 225.129L87.5317 229.956C83.4834 235.569 81.6575 238.342 79.957 241.561C77.7277 245.781 76.8992 249.007 77.2969 251.444C78.0649 256.149 80.481 259.794 84.0194 261.578C87.0178 263.089 90.9499 263.41 95.7881 262.235L96.0481 262.171C95.219 256.987 95.4726 251.199 96.6013 244.829C97.5125 239.686 98.9383 234.413 100.933 228.338L101.377 227.005C101.615 226.302 101.929 225.39 102.274 224.391L104.999 216.537L105.163 216.05C107.171 209.922 108.845 201.024 110.138 189.435C110.544 185.797 113.761 183.111 117.407 183.446C121.057 183.781 123.753 187.016 123.37 190.661C122.338 200.5 120.912 210.405 117.895 219.8L117.717 220.346C117.595 220.71 117.393 221.299 117.142 222.026L114.267 230.316C114.082 230.855 113.923 231.323 113.802 231.685L113.758 231.816C111.826 237.632 110.482 242.539 109.666 247.144C108.197 255.438 108.677 261.792 111.199 265.964C113.836 270.327 121.529 273.041 129.516 272.076C137.635 271.094 142.915 266.908 143.533 260.771C144.638 249.787 144.171 239.612 142.529 226.911L142.21 224.513L141.349 218.263C141.17 216.922 141.036 215.847 140.929 214.876L140.839 214.004C140.324 208.762 139.62 200.971 138.727 190.624C138.412 186.972 141.121 183.757 144.774 183.446C148.424 183.135 151.635 185.841 151.948 189.491C152.595 197.037 153.252 204.582 153.986 212.12L154.099 213.242C154.19 214.099 154.31 215.076 154.476 216.325L155.359 222.73C155.436 223.295 155.507 223.826 155.577 224.359C157.205 236.687 157.832 246.922 157.108 257.664L157.048 258.505L157.188 258.859C160.616 267.38 165.738 271.238 173.532 271.235L173.806 271.233C174.628 271.224 175.48 271.172 176.363 271.078C183.73 270.3 188.203 268.319 190.601 265.522C192.468 263.344 193.326 260.327 193.326 256.108C193.326 252.681 191.358 246.969 187.614 239.382C186.769 237.669 185.844 235.875 184.791 233.899L183.996 232.418L178.416 222.232C174.637 215.226 171.77 204.816 169.672 190.846C169.127 187.219 171.723 183.898 175.363 183.445C178.997 182.994 182.292 185.572 182.787 189.201C184.025 198.288 185.758 207.709 189.968 215.696L190.507 216.691L195.597 225.977C195.706 226.179 195.804 226.36 195.888 226.515L196.507 227.671C197.618 229.757 198.604 231.667 199.513 233.511C204.114 242.835 206.595 250.034 206.595 256.108C206.595 257.709 206.504 259.253 206.32 260.738L206.346 260.744C207.708 260.996 209.096 261.124 210.452 261.121L210.822 261.116C212.295 261.086 213.725 260.9 215.04 260.547C218.917 259.506 221.418 257.224 222.505 253.393C224.205 247.398 221.865 241.627 215.377 233.712L214.728 232.932C214.467 232.623 214.148 232.247 213.801 231.842L210.318 227.795C192.105 206.366 193.723 174.462 214.01 154.985C226.768 142.736 233.106 127.169 233.106 107.856C233.106 61.769 197.039 27.7263 148.4 27.7263ZM74.5775 225.264L74.4195 225.318C63.9707 228.936 56.7264 235.781 56.7264 241.966C56.7264 246.727 59.0665 249.826 63.6885 251.062L63.947 251.128L63.9366 250.848C63.7794 245.93 65.3117 240.877 68.2253 235.363L68.5436 234.766C70.1369 231.812 71.7827 229.226 74.5775 225.264ZM226.077 225.628L225.835 225.541L226.085 225.849C229.652 230.257 232.18 234.151 233.947 238.405C235.445 242.013 236.261 245.665 236.304 249.356L236.469 249.325C241.469 248.373 243.948 245.522 243.948 241.054C243.948 235.604 237.081 229.334 227.113 225.978L226.435 225.752L226.077 225.628Z" fill="black"/>
<path fill-rule="evenodd" clip-rule="evenodd" d="M148.4 27.7264C101.579 27.7264 63.6943 64.0838 63.6943 105.865C63.6943 128.525 71.911 146.269 88.5255 159.659C104.724 172.714 109.027 195.609 98.6721 213.654L98.3714 214.174C96.5049 217.371 94.3987 220.476 91.035 225.129L87.5317 229.956C83.4834 235.569 81.6575 238.342 79.957 241.561C77.7277 245.781 76.8992 249.007 77.2969 251.444C78.0649 256.149 80.481 259.794 84.0194 261.578C87.0178 263.089 90.9499 263.41 95.7881 262.235L96.0481 262.171C95.219 256.987 95.4726 251.199 96.6013 244.829C97.5125 239.686 98.9383 234.413 100.933 228.338L101.377 227.005C101.615 226.302 101.929 225.39 102.274 224.391L104.999 216.537L105.163 216.05C107.171 209.922 108.845 201.024 110.138 189.435C110.544 185.797 113.761 183.111 117.407 183.446C121.057 183.781 123.753 187.016 123.37 190.661C122.338 200.5 120.912 210.405 117.895 219.8L117.717 220.346C117.595 220.71 117.393 221.299 117.142 222.026L114.267 230.316C114.082 230.855 113.923 231.323 113.802 231.685L113.758 231.816C111.826 237.632 110.482 242.539 109.666 247.144C108.197 255.438 108.677 261.792 111.199 265.964C113.836 270.327 121.529 273.042 129.516 272.076C137.635 271.094 142.915 266.908 143.533 260.771C144.638 249.787 144.171 239.612 142.529 226.911L142.21 224.513L141.349 218.263C141.17 216.922 141.036 215.847 140.929 214.876L140.839 214.005C140.323 208.762 139.62 200.971 138.727 190.624C138.412 186.972 141.121 183.757 144.774 183.446C148.424 183.135 151.635 185.841 151.948 189.491C152.595 197.037 153.252 204.582 153.986 212.12L154.099 213.242C154.19 214.099 154.31 215.076 154.476 216.325L155.359 222.73C155.436 223.295 155.507 223.826 155.577 224.359C157.205 236.687 157.832 246.922 157.108 257.664L157.048 258.505L157.188 258.859C160.616 267.38 165.738 271.238 173.532 271.235L173.806 271.234C174.628 271.224 175.48 271.172 176.363 271.078C183.73 270.3 188.203 268.319 190.601 265.522C192.468 263.344 193.326 260.327 193.326 256.108C193.326 252.681 191.358 246.969 187.614 239.382C186.769 237.67 185.844 235.875 184.791 233.899L183.996 232.418L178.416 222.232C174.637 215.226 171.77 204.816 169.672 190.846C169.127 187.219 171.723 183.898 175.363 183.445C178.997 182.994 182.292 185.572 182.787 189.201C184.025 198.288 185.758 207.709 189.968 215.696L190.507 216.691L195.597 225.977C195.706 226.179 195.804 226.36 195.888 226.515L196.507 227.671C197.618 229.757 198.603 231.667 199.513 233.511C204.114 242.835 206.595 250.034 206.595 256.108C206.595 257.709 206.504 259.253 206.32 260.738L206.346 260.744C207.708 260.996 209.096 261.124 210.452 261.121L210.822 261.116C212.295 261.087 213.725 260.9 215.04 260.547C218.917 259.506 221.418 257.224 222.505 253.393C224.205 247.398 221.865 241.627 215.377 233.712L214.728 232.932C214.467 232.623 214.148 232.247 213.801 231.842L210.318 227.795C192.105 206.366 193.723 174.462 214.01 154.985C226.768 142.736 233.106 127.169 233.106 107.856C233.106 61.7691 197.039 27.7264 148.4 27.7264ZM74.5775 225.264L74.4195 225.318C63.9707 228.937 56.7264 235.781 56.7264 241.966C56.7264 246.727 59.0665 249.826 63.6885 251.062L63.947 251.128L63.9366 250.848C63.7794 245.93 65.3117 240.877 68.2253 235.363L68.5436 234.766C70.1369 231.812 71.7827 229.226 74.5775 225.264ZM226.077 225.628L225.835 225.541L226.085 225.849C229.652 230.257 232.18 234.151 233.947 238.405C235.445 242.013 236.261 245.665 236.304 249.356L236.469 249.325C241.469 248.373 243.948 245.522 243.948 241.054C243.948 235.604 237.081 229.334 227.113 225.978L226.435 225.752L226.077 225.628Z" fill="#03FFFF"/>
<path d="M205.665 135.052C215.375 135.052 223.246 127.181 223.246 117.471C223.246 107.762 215.375 99.8907 205.665 99.8907C195.956 99.8907 188.085 107.762 188.085 117.471C188.085 127.181 195.956 135.052 205.665 135.052Z" fill="black"/>
<path fill-rule="evenodd" clip-rule="evenodd" d="M124.653 119.148C132.898 116.997 142.26 119.514 152.059 125.892C155.727 128.279 156.76 133.186 154.359 136.848C151.961 140.503 147.051 141.528 143.389 139.144C136.677 134.776 132.145 133.611 128.942 134.384C125.88 135.123 123.015 137.911 120.349 144.338C118.674 148.378 114.038 150.292 109.997 148.631C105.951 146.967 104.017 142.341 105.694 138.295C109.956 128.019 116.339 121.317 124.653 119.148Z" fill="black"/>
<path fill-rule="evenodd" clip-rule="evenodd" d="M182.765 168.303C208.835 161.453 210.879 141.144 225.3 148.115C239.722 155.087 231.605 199.865 190.94 208.001C150.274 216.136 125.022 185.672 132.509 168.131C139.996 150.59 156.695 175.152 182.765 168.303Z" fill="white"/>
<path fill-rule="evenodd" clip-rule="evenodd" d="M229.233 139.98C223.701 137.306 218.238 136.873 212.936 138.954C208.564 140.669 204.985 143.921 202.434 146.238L202.325 146.338C202.118 146.526 201.911 146.714 201.704 146.902C196.341 151.784 190.768 156.857 180.469 159.563C170.925 162.07 163.111 159.178 154.649 156.045L154.641 156.042C154.361 155.939 154.081 155.835 153.8 155.731L153.564 155.644C149.859 154.274 144.368 152.244 139.048 152.721C135.896 153.003 132.74 154.127 129.962 156.442C127.313 158.651 125.5 161.534 124.198 164.584C118.222 178.584 125.898 194.564 137.853 204.612C150.482 215.226 169.773 221.45 192.712 216.861C216.357 212.131 230.833 196.586 237.15 181.02C240.273 173.325 241.549 165.279 240.707 158.201C239.897 151.398 236.784 143.63 229.233 139.98ZM196.459 197.088L193.217 174.29C198.426 172.111 202.628 169.477 206.092 166.876L216.998 180.777C212.712 187.436 205.996 193.557 196.459 197.088ZM221.336 171.668C222.755 167.28 223.114 163.304 222.761 160.338C222.382 157.154 221.425 156.322 221.32 156.231L221.313 156.224C220.357 155.769 219.897 155.723 219.804 155.717L219.794 155.716C219.756 155.713 219.711 155.709 219.536 155.777C218.717 156.099 217.491 156.976 214.477 159.715C214.213 159.954 213.943 160.2 213.667 160.453C213.451 160.649 213.232 160.85 213.008 161.053L221.336 171.668ZM184.501 177.186L187.663 199.422C176.818 201.325 167.546 200.036 160.163 197.094L166.049 178.047C171.581 178.844 177.793 178.86 184.501 177.186ZM149.047 173.247C148.524 173.051 148.02 172.862 147.537 172.683C143.952 171.359 142.179 170.878 141.271 170.752C141.148 170.968 140.994 171.269 140.82 171.678C139.308 175.219 140.515 183.242 149.481 190.777C150.287 191.454 151.143 192.112 152.049 192.745L157.203 176.067C154.128 175.151 151.392 174.126 149.047 173.247Z" fill="black"/>
</svg>
