<svg width="192" height="60" viewBox="0 0 192 60" fill="none" xmlns="http://www.w3.org/2000/svg">
<path fill-rule="evenodd" clip-rule="evenodd" d="M12.2504 55.7614C10.7464 55.5252 9.32495 54.9259 8.17286 53.8982C6.62118 52.5142 5.8 50.5633 5.8 48.3932C5.8 43.9524 9.53496 41.0588 13.0275 39.8381L13.033 39.8362L13.1359 39.8007L13.1415 39.7988C13.4577 39.6911 14.182 39.2538 15.2825 38.1077C15.1828 37.41 14.8317 36.7526 14.2595 36.2773L14.2184 36.2438C9.54545 32.4745 7.19359 27.3166 7.19359 21.1731C7.19359 9.56677 17.4444 0 29.68 0C42.297 0 52.1664 9.11919 52.1664 21.5711C52.1664 24.3819 51.6525 27.0188 50.5844 29.4227C50.8112 30.0743 50.9433 30.7159 51.0126 31.2984C51.2487 33.2815 50.8836 35.3836 50.1094 37.2913C49.6805 38.3479 49.1033 39.4013 48.3723 40.3994C51.3982 41.7383 54.3349 44.3352 54.3349 48.2107C54.3349 50.3212 53.5223 52.2084 52.0102 53.5452C50.8872 54.5381 49.5068 55.1176 48.0541 55.3547C47.068 56.393 45.8152 57.0975 44.4453 57.4651C43.7155 57.661 42.9703 57.756 42.2402 57.7682L42.231 57.7684L42.1271 57.7694L42.118 57.7695C41.8379 57.7706 41.5576 57.7597 41.2784 57.737C39.8054 58.8982 37.9215 59.5118 35.8555 59.7302C35.5198 59.7657 35.1851 59.7862 34.8521 59.7908L34.8436 59.7909L34.7362 59.7917L34.7274 59.7917C33.1313 59.7944 31.6428 59.4242 30.3377 58.6876C29.1887 59.3574 27.8908 59.7605 26.5688 59.9203C26.1555 59.9703 25.7421 59.9965 25.3319 59.9999L25.32 60H25.2296L25.2269 60C23.1773 59.9962 20.9727 59.4005 19.2655 58.0546C18.9019 58.1004 18.5377 58.1266 18.1739 58.1316L18.166 58.1317L18.0794 58.1324L18.0714 58.1324C16.7642 58.1356 15.4856 57.8611 14.3074 57.267C13.5252 56.8727 12.8367 56.3608 12.2504 55.7614Z" fill="#FFFF00"/>
<path fill-rule="evenodd" clip-rule="evenodd" d="M49.2749 21.5711C49.2749 10.8528 40.8403 2.89156 29.68 2.89156C18.874 2.89156 10.0852 11.3262 10.0852 21.1731C10.0852 26.496 12.0821 30.8084 16.0399 33.998L16.0956 34.0435C17.6653 35.3404 18.3991 37.3187 18.1587 39.2421C16.5847 41.0584 15.2044 42.151 14.0734 42.5361L13.9816 42.5677C10.9602 43.6238 8.69157 45.7797 8.69157 48.3932C8.69157 51.2229 10.7679 52.958 13.7108 52.9871C14.1844 53.7029 14.8244 54.2894 15.6092 54.6851C16.3473 55.0572 17.1717 55.243 18.0642 55.2408L18.1348 55.2403C18.7715 55.2316 19.4424 55.1281 20.1408 54.929L20.2017 54.9113C21.262 56.3304 23.1954 57.1047 25.2322 57.1084H25.308C25.6114 57.1059 25.9168 57.0866 26.2218 57.0497C27.8968 56.8472 29.3372 56.1441 30.2658 55.0317L30.3067 54.982C31.4216 56.2464 32.9149 56.9032 34.7226 56.9002L34.8126 56.8995C35.0535 56.8962 35.2998 56.8813 35.5515 56.8547C37.7945 56.6176 39.334 55.8687 40.2545 54.7016L40.295 54.6493C40.8834 54.8019 41.4982 54.8804 42.1062 54.8779L42.1919 54.877C42.7061 54.8685 43.2142 54.8016 43.6958 54.6723C44.9061 54.3476 45.8935 53.6518 46.5229 52.6261L46.5454 52.589L46.636 52.5875C49.45 52.5235 51.4434 50.8875 51.4434 48.2107C51.4434 45.6832 49.1782 43.6344 46.1844 42.6525L46.1324 42.635C45.0545 42.2635 43.7473 41.2603 42.2588 39.6094L42.2375 39.5858C41.9624 37.1876 42.7765 34.7002 44.6399 32.9112L44.732 32.8222C47.7552 29.8737 49.2749 26.0957 49.2749 21.5711ZM29.68 5.54526C20.3157 5.54526 12.7389 12.8168 12.7389 21.1731C12.7389 25.7051 14.3822 29.2539 17.7051 31.9318C20.9449 34.5428 21.8054 39.1218 19.7344 42.7308L19.6743 42.8347C19.301 43.4743 18.8797 44.0952 18.207 45.0258L17.5063 45.9913C16.6967 47.1138 16.3315 47.6685 15.9914 48.3122C15.5455 49.1561 15.3798 49.8014 15.4594 50.2888C15.613 51.2298 16.0962 51.9587 16.8039 52.3155C17.4036 52.6179 18.19 52.6821 19.1576 52.447L19.2096 52.4341C19.0438 51.3975 19.0945 50.2398 19.3203 48.9658C19.5025 47.9373 19.7877 46.8827 20.1866 45.6676L20.2754 45.4009C20.323 45.2604 20.3857 45.078 20.4549 44.8781L20.9998 43.3075L21.0326 43.2099C21.4343 41.9844 21.7689 40.2048 22.0276 37.887C22.1088 37.1594 22.7523 36.6222 23.4813 36.6891C24.2113 36.7562 24.7505 37.4032 24.674 38.1322C24.4676 40.1 24.1824 42.081 23.5791 43.9599L23.5434 44.0691C23.5191 44.142 23.4787 44.2597 23.4284 44.4051L22.8533 46.0632C22.8163 46.171 22.7845 46.2645 22.7603 46.337L22.7516 46.3631C22.3653 47.5263 22.0965 48.5077 21.9333 49.4288C21.6393 51.0876 21.7354 52.3583 22.2398 53.1927C22.7673 54.0654 24.3059 54.6083 25.9033 54.4152C27.5271 54.2189 28.583 53.3817 28.7065 52.1541C28.9277 49.9574 28.8343 47.9224 28.5059 45.3821L28.4421 44.9026L28.2698 43.6526C28.2339 43.3845 28.2071 43.1694 28.1859 42.9752L28.1678 42.8009C28.0647 41.7524 27.924 40.1942 27.7455 38.1249C27.6825 37.3945 28.2243 36.7514 28.9547 36.6892C29.6848 36.6271 30.3269 37.1682 30.3896 37.8982C30.5191 39.4074 30.6503 40.9164 30.7973 42.424L30.8197 42.6484C30.838 42.8198 30.8621 43.0153 30.8953 43.265L31.0717 44.5459C31.0871 44.659 31.1014 44.7652 31.1154 44.8718C31.4411 47.3374 31.5664 49.3845 31.4216 51.5328L31.4097 51.701L31.4376 51.7719C32.1233 53.4759 33.1477 54.2477 34.7065 54.247L34.7611 54.2467C34.9256 54.2447 35.0961 54.2344 35.2726 54.2157C36.746 54.06 37.6407 53.6638 38.1202 53.1045C38.4936 52.6688 38.6653 52.0654 38.6653 51.2216C38.6653 50.5362 38.2715 49.3938 37.5228 47.8763C37.3538 47.5339 37.1688 47.1751 36.9582 46.7799L36.7991 46.4835L35.6832 44.4463C34.9273 43.0452 34.354 40.9631 33.9343 38.1693C33.8254 37.4438 34.3445 36.7795 35.0725 36.6891C35.7994 36.5988 36.4585 37.1144 36.5574 37.8401C36.805 39.6576 37.1517 41.5418 37.9936 43.1393L38.1014 43.3383L39.1194 45.1954C39.1413 45.2358 39.1608 45.2719 39.1776 45.3031L39.3014 45.5343C39.5237 45.9515 39.7207 46.3335 39.9026 46.7021C40.8227 48.5671 41.319 50.0068 41.319 51.2216C41.319 51.5418 41.3008 51.8507 41.264 52.1477L41.2692 52.1487C41.5417 52.1992 41.8192 52.2248 42.0905 52.2241L42.1643 52.2233C42.4589 52.2173 42.745 52.1799 43.008 52.1093C43.7834 51.9012 44.2836 51.4449 44.501 50.6787C44.8411 49.4795 44.3729 48.3254 43.0754 46.7424L42.9456 46.5864C42.8934 46.5246 42.8296 46.4495 42.7602 46.3684L42.0637 45.559C38.421 41.2732 38.7446 34.8923 42.802 30.997C45.3536 28.5473 46.6212 25.4338 46.6212 21.5711C46.6212 12.3538 39.4078 5.54526 29.68 5.54526ZM14.9155 45.0527L14.8839 45.0635C12.7941 45.7873 11.3453 47.1562 11.3453 48.3932C11.3453 49.3455 11.8133 49.9652 12.7377 50.2123L12.7894 50.2257L12.7873 50.1696C12.7559 49.1859 13.0623 48.1755 13.6451 47.0725L13.7087 46.9533C14.0274 46.3623 14.3565 45.8453 14.9155 45.0527ZM45.2154 45.1256L45.1669 45.1081L45.2171 45.1698C45.9304 46.0514 46.4361 46.8301 46.7894 47.6809C47.0891 48.4025 47.2521 49.1331 47.2608 49.8711L47.2938 49.8651C48.2938 49.6747 48.7897 49.1044 48.7897 48.2107C48.7897 47.1207 47.4162 45.8667 45.4226 45.1957L45.2869 45.1504L45.2154 45.1256Z" fill="black"/>
<path fill-rule="evenodd" clip-rule="evenodd" d="M29.68 5.54527C20.3157 5.54527 12.7389 12.8168 12.7389 21.1731C12.7389 25.7051 14.3822 29.2539 17.7051 31.9318C20.9449 34.5428 21.8054 39.1218 19.7344 42.7308L19.6743 42.8347C19.301 43.4743 18.8797 44.0952 18.207 45.0258L17.5063 45.9913C16.6967 47.1138 16.3315 47.6685 15.9914 48.3122C15.5455 49.1561 15.3798 49.8014 15.4594 50.2888C15.613 51.2298 16.0962 51.9587 16.8039 52.3155C17.4036 52.6179 18.19 52.6821 19.1576 52.4471L19.2096 52.4341C19.0438 51.3975 19.0945 50.2398 19.3203 48.9658C19.5025 47.9373 19.7877 46.8827 20.1866 45.6676L20.2754 45.4009C20.323 45.2604 20.3857 45.078 20.4549 44.8781L20.9998 43.3075L21.0326 43.2099C21.4343 41.9844 21.7689 40.2049 22.0276 37.887C22.1088 37.1594 22.7523 36.6222 23.4813 36.6891C24.2113 36.7562 24.7505 37.4032 24.674 38.1322C24.4676 40.1 24.1824 42.081 23.5791 43.9599L23.5434 44.0691C23.5191 44.142 23.4787 44.2597 23.4284 44.4051L22.8533 46.0632C22.8163 46.1711 22.7845 46.2645 22.7603 46.337L22.7516 46.3631C22.3653 47.5263 22.0965 48.5077 21.9333 49.4288C21.6393 51.0876 21.7354 52.3583 22.2398 53.1927C22.7673 54.0654 24.3059 54.6083 25.9033 54.4152C27.5271 54.2189 28.583 53.3817 28.7065 52.1541C28.9277 49.9574 28.8343 47.9224 28.5059 45.3821L28.4421 44.9026L28.2698 43.6526C28.2339 43.3845 28.2071 43.1694 28.1859 42.9752L28.1678 42.8009C28.0647 41.7524 27.924 40.1943 27.7455 38.1249C27.6825 37.3945 28.2243 36.7514 28.9547 36.6892C29.6848 36.6271 30.3269 37.1682 30.3896 37.8982C30.5191 39.4074 30.6503 40.9165 30.7973 42.424L30.8197 42.6484C30.838 42.8198 30.8621 43.0153 30.8953 43.265L31.0717 44.5459C31.0871 44.659 31.1014 44.7652 31.1154 44.8718C31.4411 47.3374 31.5664 49.3845 31.4216 51.5328L31.4097 51.701L31.4376 51.7719C32.1233 53.4759 33.1477 54.2477 34.7065 54.247L34.7611 54.2467C34.9256 54.2447 35.0961 54.2344 35.2726 54.2157C36.746 54.06 37.6407 53.6638 38.1202 53.1045C38.4936 52.6688 38.6653 52.0654 38.6653 51.2216C38.6653 50.5362 38.2715 49.3938 37.5228 47.8763C37.3538 47.5339 37.1688 47.1751 36.9582 46.7799L36.7991 46.4835L35.6832 44.4463C34.9273 43.0452 34.354 40.9631 33.9343 38.1693C33.8254 37.4438 34.3445 36.7795 35.0725 36.6891C35.7994 36.5988 36.4585 37.1144 36.5574 37.8401C36.805 39.6576 37.1517 41.5418 37.9936 43.1393L38.1014 43.3383L39.1194 45.1954C39.1413 45.2358 39.1608 45.2719 39.1776 45.3031L39.3014 45.5343C39.5237 45.9515 39.7207 46.3335 39.9026 46.7021C40.8227 48.5671 41.319 50.0068 41.319 51.2216C41.319 51.5418 41.3008 51.8507 41.264 52.1477L41.2692 52.1487C41.5417 52.1992 41.8192 52.2248 42.0905 52.2241L42.1643 52.2233C42.4589 52.2173 42.745 52.1799 43.008 52.1093C43.7834 51.9012 44.2836 51.4449 44.501 50.6787C44.8411 49.4795 44.3729 48.3254 43.0754 46.7424L42.9456 46.5864C42.8934 46.5246 42.8296 46.4495 42.7602 46.3684L42.0637 45.559C38.421 41.2732 38.7446 34.8923 42.802 30.997C45.3536 28.5473 46.6212 25.4338 46.6212 21.5711C46.6212 12.3538 39.4078 5.54527 29.68 5.54527ZM14.9155 45.0527L14.8839 45.0635C12.7941 45.7873 11.3453 47.1562 11.3453 48.3932C11.3453 49.3455 11.8133 49.9652 12.7377 50.2123L12.7894 50.2257L12.7873 50.1696C12.7559 49.1859 13.0623 48.1755 13.6451 47.0725L13.7087 46.9533C14.0274 46.3623 14.3565 45.8453 14.9155 45.0527ZM45.2154 45.1256L45.1669 45.1081L45.2171 45.1698C45.9304 46.0514 46.4361 46.8301 46.7894 47.6809C47.0891 48.4025 47.2521 49.1331 47.2608 49.8711L47.2938 49.8651C48.2938 49.6747 48.7897 49.1044 48.7897 48.2108C48.7897 47.1208 47.4162 45.8667 45.4226 45.1957L45.2869 45.1504L45.2154 45.1256Z" fill="#03FFFF"/>
<path d="M41.1331 27.0104C43.075 27.0104 44.6492 25.4362 44.6492 23.4943C44.6492 21.5524 43.075 19.9781 41.1331 19.9781C39.1912 19.9781 37.6169 21.5524 37.6169 23.4943C37.6169 25.4362 39.1912 27.0104 41.1331 27.0104Z" fill="black"/>
<path fill-rule="evenodd" clip-rule="evenodd" d="M24.9306 23.8296C26.5796 23.3994 28.4521 23.9029 30.4117 25.1783C31.1454 25.6559 31.3521 26.6372 30.8717 27.3696C30.3922 28.1007 29.4102 28.3056 28.6778 27.8289C27.3354 26.9552 26.429 26.7221 25.7884 26.8768C25.176 27.0246 24.6029 27.5822 24.0698 28.8677C23.7347 29.6757 22.8076 30.0585 21.9995 29.7262C21.1902 29.3934 20.8033 28.4681 21.1389 27.659C21.9912 25.6037 23.2678 24.2634 24.9306 23.8296Z" fill="black"/>
<path fill-rule="evenodd" clip-rule="evenodd" d="M36.553 33.6605C41.767 32.2906 42.1757 28.2288 45.06 29.6231C47.9443 31.0173 46.3209 39.973 38.1879 41.6001C30.0549 43.2272 25.0044 37.1344 26.5018 33.6262C27.9992 30.1179 31.339 35.0304 36.553 33.6605Z" fill="white"/>
<path fill-rule="evenodd" clip-rule="evenodd" d="M45.8465 27.996C44.7403 27.4612 43.6475 27.3747 42.5871 27.7907C41.7128 28.1337 40.997 28.7841 40.4868 29.2477L40.4649 29.2676C40.4236 29.3051 40.3822 29.3428 40.3408 29.3804C39.2682 30.3568 38.1536 31.3714 36.0937 31.9126C34.1849 32.4141 32.6221 31.8355 30.9299 31.209L30.9283 31.2085C30.8723 31.1877 30.8162 31.167 30.7599 31.1462L30.7129 31.1288C29.9717 30.8548 28.8736 30.4488 27.8095 30.5441C27.1793 30.6006 26.548 30.8254 25.9925 31.2885C25.4625 31.7303 25.0999 32.3069 24.8396 32.9167C23.6445 35.7168 25.1796 38.9128 27.5706 40.9224C30.0964 43.0452 33.9545 44.2901 38.5424 43.3722C43.2715 42.4261 46.1665 39.3171 47.43 36.2039C48.0546 34.6649 48.3099 33.0558 48.1413 31.6402C47.9793 30.2795 47.3567 28.7259 45.8465 27.996ZM39.2917 39.4176L38.6433 34.858C39.6852 34.4221 40.5256 33.8954 41.2183 33.3753L43.3995 36.1555C42.5424 37.4871 41.1992 38.7115 39.2917 39.4176ZM44.2672 34.3335C44.5509 33.4559 44.6229 32.6608 44.5522 32.0675C44.4764 31.4308 44.285 31.2644 44.264 31.2462L44.2625 31.2449C44.0715 31.1539 43.9793 31.1446 43.9608 31.1433L43.9588 31.1432C43.9512 31.1425 43.9421 31.1418 43.9073 31.1555C43.7434 31.2198 43.4983 31.3952 42.8953 31.9429C42.8426 31.9908 42.7886 32.0401 42.7333 32.0906C42.6903 32.1299 42.6464 32.1699 42.6017 32.2106L44.2672 34.3335ZM36.9002 35.4371L37.5327 39.8845C35.3635 40.2649 33.5092 40.0072 32.0325 39.4189L33.2098 35.6094C34.3162 35.7688 35.5587 35.7721 36.9002 35.4371ZM29.8094 34.6494C29.7048 34.6102 29.6041 34.5724 29.5074 34.5367C28.7903 34.2718 28.4359 34.1756 28.2542 34.1504C28.2295 34.1936 28.1988 34.2539 28.1639 34.3356C27.8617 35.0438 28.1031 36.6483 29.8962 38.1554C30.0573 38.2908 30.2286 38.4224 30.4098 38.549L31.4406 35.2133C30.8256 35.0303 30.2783 34.8252 29.8094 34.6494Z" fill="black"/>
<path fill-rule="evenodd" clip-rule="evenodd" d="M176.421 25.492C176.421 25.1595 176.69 24.89 177.023 24.89H180.252C180.857 24.89 181.396 25.274 181.593 25.8461L182.935 29.744C183.19 30.4727 183.444 31.2521 183.697 32.0803C183.901 32.7462 184.103 33.5455 184.304 34.4761C184.505 33.5455 184.707 32.7462 184.911 32.0803C185.164 31.2521 185.418 30.4736 185.672 29.745L185.673 29.744L187.015 25.8461C187.212 25.274 187.751 24.89 188.356 24.89H191.384C191.716 24.89 191.985 25.1592 191.985 25.4914C191.985 25.5607 191.973 25.6295 191.95 25.6948L187.32 38.578C186.712 40.2836 186.118 41.7439 185.539 42.9552C185.104 43.9041 184.717 44.6852 184.379 45.2952C184.131 45.7428 183.659 46 183.166 46H179.479C179.196 46 178.967 45.7708 178.967 45.488C178.967 45.3945 178.992 45.3023 179.041 45.2217C179.454 44.5438 179.902 43.7565 180.384 42.8588C180.8 42.0833 181.173 41.3402 181.501 40.6294C181.55 40.5241 181.556 40.4013 181.516 40.2865L176.454 25.6893C176.432 25.6258 176.421 25.5592 176.421 25.492Z" fill="white"/>
<path fill-rule="evenodd" clip-rule="evenodd" d="M158.252 25.4036C158.99 24.7853 160.014 24.5119 161.252 24.5119C162.363 24.5119 163.325 24.7627 164.11 25.2963C164.811 25.7485 165.359 26.3701 165.756 27.1483C165.757 27.1502 165.759 27.1533 165.759 27.1533C165.76 27.1513 165.762 27.1487 165.763 27.1456C166.096 26.4471 166.572 25.854 167.185 25.3697C167.934 24.7785 168.933 24.5119 170.125 24.5119C171.865 24.5119 173.239 25.0835 174.156 26.2861C175.044 27.4523 175.462 29.0015 175.462 30.8827V39.541C175.462 40.324 174.827 40.9588 174.044 40.9588H171.851C171.068 40.9588 170.434 40.324 170.434 39.541V31.5633C170.434 30.5803 170.271 29.8777 169.995 29.4083C169.757 29.0041 169.381 28.7843 168.764 28.7843C168.001 28.7843 167.448 29.0884 167.048 29.7201C166.634 30.4024 166.413 31.2609 166.413 32.3194V39.541C166.413 40.324 165.778 40.9588 164.995 40.9588H162.802C162.019 40.9588 161.385 40.324 161.385 39.541V31.5633C161.385 30.5803 161.222 29.8777 160.946 29.4083C160.708 29.0041 160.332 28.7843 159.715 28.7843C158.971 28.7843 158.424 29.0863 158.022 29.7232C157.593 30.4049 157.364 31.2621 157.364 32.3194V39.541C157.364 40.324 156.729 40.9588 155.946 40.9588H153.753C152.97 40.9588 152.336 40.324 152.336 39.541V26.3078C152.336 25.5248 152.97 24.89 153.753 24.89H155.644C156.427 24.89 157.062 25.5248 157.062 26.3078V26.816C157.364 26.2848 157.762 25.8138 158.252 25.4036Z" fill="white"/>
<path fill-rule="evenodd" clip-rule="evenodd" d="M136.652 26.844C138.011 25.2641 140.035 24.5119 142.631 24.5119C145.225 24.5119 147.242 25.2633 148.585 26.8441C149.921 28.38 150.565 30.4243 150.565 32.9244C150.565 35.426 149.92 37.4781 148.585 39.03C147.241 40.5944 145.224 41.3369 142.631 41.3369C140.037 41.3369 138.013 40.5942 136.654 39.0321L136.65 39.0276C135.332 37.4757 134.697 35.4245 134.697 32.9244C134.697 30.4246 135.332 28.3801 136.652 26.844ZM142.631 28.1794C141.67 28.1794 141.019 28.5436 140.592 29.2595L140.59 29.263C140.136 30.0094 139.877 31.2072 139.877 32.9244C139.877 34.6227 140.135 35.8236 140.592 36.5893C141.019 37.3052 141.67 37.6694 142.631 37.6694C143.592 37.6694 144.243 37.3052 144.67 36.5893C145.126 35.8236 145.385 34.6227 145.385 32.9244C145.385 31.2072 145.126 30.0094 144.672 29.2629L144.67 29.2595C144.243 28.5436 143.592 28.1794 142.631 28.1794Z" fill="white"/>
<path fill-rule="evenodd" clip-rule="evenodd" d="M124.525 25.3697C125.28 24.7737 126.335 24.5119 127.616 24.5119C129.402 24.5119 130.816 25.0799 131.767 26.2787C132.693 27.4456 133.13 28.9977 133.13 30.8827V39.541C133.13 40.324 132.495 40.9588 131.712 40.9588H129.519C128.736 40.9588 128.101 40.324 128.101 39.541V31.5633C128.101 30.5662 127.922 29.8754 127.626 29.4309L127.622 29.4255C127.361 29.0213 126.927 28.7843 126.204 28.7843C125.378 28.7843 124.77 29.1003 124.324 29.7411L124.321 29.7451C123.852 30.4043 123.602 31.2519 123.602 32.3194V39.541C123.602 40.324 122.967 40.9588 122.184 40.9588H119.991C119.208 40.9588 118.573 40.324 118.573 39.541V26.3078C118.573 25.5248 119.208 24.89 119.991 24.89H121.882C122.665 24.89 123.299 25.5248 123.299 26.3078V26.8151C123.612 26.2608 124.02 25.7795 124.521 25.3736L124.525 25.3697Z" fill="white"/>
<path fill-rule="evenodd" clip-rule="evenodd" d="M105.21 25.5343C106.389 24.8446 107.804 24.5119 109.431 24.5119C111.782 24.5119 113.648 25.2265 114.952 26.7134C116.267 28.1928 116.885 30.3231 116.885 33.0252C116.885 33.7595 116.29 34.3548 115.556 34.3548H107.138C106.843 34.3548 106.68 34.5916 106.719 34.793C106.866 35.5493 107.125 36.1498 107.482 36.6132C107.974 37.2146 108.624 37.5182 109.481 37.5182C110.171 37.5182 110.672 37.3164 111.037 36.9508L111.043 36.945C111.304 36.693 111.506 36.4214 111.652 36.1303C111.899 35.6385 112.401 35.174 113.072 35.174H115.099C115.942 35.174 116.702 35.962 116.388 36.878C116.195 37.4386 115.931 37.972 115.597 38.4779C115.027 39.3429 114.231 40.0331 113.227 40.553C112.201 41.0847 110.944 41.3369 109.481 41.3369C106.996 41.3369 105.029 40.5892 103.657 39.0345L103.655 39.0321C102.317 37.4949 101.674 35.4322 101.674 32.8992C101.674 31.2007 101.959 29.7168 102.55 28.463L102.553 28.4581C103.163 27.2026 104.048 26.2239 105.207 25.5359L105.21 25.5343ZM107.506 28.9385C107.192 29.2713 106.941 29.746 106.772 30.3919C106.722 30.5862 106.876 30.8386 107.185 30.8386H111.428C111.726 30.8386 111.88 30.602 111.841 30.4138C111.712 29.7952 111.495 29.3185 111.206 28.9622L111.202 28.9575C110.802 28.4511 110.227 28.1794 109.405 28.1794C108.595 28.1794 107.978 28.4392 107.506 28.9385Z" fill="white"/>
<path fill-rule="evenodd" clip-rule="evenodd" d="M91.4222 25.3192C92.1961 24.8161 93.195 24.5875 94.3768 24.5875C95.8342 24.5875 97.0763 24.9529 98.0665 25.718C99.038 26.4519 99.7509 27.463 100.214 28.7278C100.674 29.9666 100.899 31.3766 100.899 32.9496C100.899 34.5405 100.666 35.9681 100.188 37.2244C99.7229 38.4759 98.9985 39.4713 98.0076 40.1875C97.0198 40.9137 95.7988 41.2613 94.3768 41.2613C93.348 41.2613 92.4565 41.0754 91.7284 40.673C91.1649 40.3616 90.6912 39.9584 90.3123 39.4642V44.5822C90.3123 45.3652 89.6775 46 88.8945 46H86.7015C85.9185 46 85.2837 45.3652 85.2837 44.5822V26.3078C85.2837 25.5248 85.9185 24.89 86.7015 24.89H88.592C89.375 24.89 90.0098 25.5248 90.0098 26.3078V26.6525C90.3776 26.1346 90.8507 25.6906 91.4222 25.3192ZM91.1364 29.5376C90.6042 30.3224 90.3123 31.4352 90.3123 32.9244C90.3123 34.3938 90.6031 35.5088 91.1375 36.3129C91.6767 37.0829 92.3588 37.4426 93.2173 37.4426C93.9692 37.4426 94.5457 37.1228 94.9856 36.4274L94.9869 36.4253C95.4534 35.6965 95.719 34.5516 95.719 32.9244C95.719 31.296 95.453 30.1623 94.9893 29.4523L94.9832 29.443C94.5413 28.7301 93.9647 28.4062 93.2173 28.4062C92.3582 28.4062 91.6757 28.7664 91.1364 29.5376Z" fill="white"/>
<path fill-rule="evenodd" clip-rule="evenodd" d="M68.338 21.3276C69.8242 20.4326 71.6532 20 73.7988 20C75.9596 20 77.7898 20.4319 79.2607 21.3283C80.7247 22.2036 81.8133 23.4556 82.523 25.0687C83.2453 26.6555 83.5977 28.5225 83.5977 30.6558C83.5977 32.7737 83.2449 34.64 82.5233 36.2422C81.8137 37.8556 80.7254 39.1155 79.2625 40.0075L79.2589 40.0097C77.7884 40.8884 75.959 41.3117 73.7988 41.3117C71.6544 41.3117 69.8265 40.888 68.3409 40.011L68.3351 40.0075C66.8726 39.1157 65.7764 37.8564 65.05 36.2441L65.0482 36.2401C64.3442 34.6386 64 32.7731 64 30.6558C64 28.5226 64.344 26.6561 65.049 25.0698L65.05 25.0676C65.7766 23.4548 66.8736 22.2029 68.338 21.3276ZM70.4376 25.7237C69.7196 26.8249 69.3311 28.4499 69.3311 30.6558C69.3311 32.8427 69.7187 34.4694 70.4385 35.5892C71.1417 36.642 72.2306 37.1905 73.7988 37.1905C75.3688 37.1905 76.4474 36.6411 77.1336 35.5899L77.1344 35.5886C77.8703 34.4695 78.2666 32.8434 78.2666 30.6558C78.2666 28.45 77.8697 26.826 77.1361 25.7256L77.1336 25.7218C76.4474 24.6706 75.3688 24.1212 73.7988 24.1212C72.23 24.1212 71.1409 24.6701 70.4376 25.7237Z" fill="white"/>
</svg>
