<svg width="1815" height="848" viewBox="0 0 1815 848" fill="none" xmlns="http://www.w3.org/2000/svg">
<g clip-path="url(#clip0_44_217)">
<g filter="url(#filter0_f_44_217)">
<rect x="527.4" y="188.68" width="708.08" height="470.64" fill="#0B0B0B"/>
</g>
<mask id="mask0_44_217" style="mask-type:alpha" maskUnits="userSpaceOnUse" x="245" y="659" width="1273" height="190">
<path d="M245.44 848L527.93 659.85H1234.95L1517.44 848H245.44Z" fill="#D9D9D9"/>
</mask>
<g mask="url(#mask0_44_217)">
<g filter="url(#filter1_f_44_217)">
<ellipse cx="908.44" cy="848" rx="364.64" ry="44.52" fill="white" fill-opacity="0.2"/>
</g>
</g>
<path d="M1542.88 0.000488281H220.001V848H1542.88V0.000488281Z" stroke="#B3B3B3" stroke-opacity="0.2" stroke-width="0.795"/>
<path d="M1437.16 67.7727H325.725V780.228H1437.16V67.7727Z" stroke="#B3B3B3" stroke-opacity="0.2" stroke-width="0.795"/>
<path d="M1354.92 120.484H407.955V727.516H1354.92V120.484Z" stroke="#B3B3B3" stroke-opacity="0.2" stroke-width="0.795"/>
<path d="M1296.19 158.135H466.691V689.865H1296.19V158.135Z" stroke="#B3B3B3" stroke-opacity="0.2" stroke-width="0.795"/>
<path d="M1249.2 188.256H513.679V659.744H1249.2V188.256Z" stroke="#B3B3B3" stroke-opacity="0.2" stroke-width="0.795"/>
<path d="M513.679 659.744L220 848" stroke="#B3B3B3" stroke-opacity="0.2" stroke-width="0.795"/>
<path d="M556.945 659.744L313.077 848" stroke="#B3B3B3" stroke-opacity="0.2" stroke-width="0.795"/>
<path d="M600.211 659.744L399.036 848" stroke="#B3B3B3" stroke-opacity="0.2" stroke-width="0.795"/>
<path d="M643.477 659.744L479.899 848" stroke="#B3B3B3" stroke-opacity="0.2" stroke-width="0.795"/>
<path d="M686.743 659.744L557.071 848" stroke="#B3B3B3" stroke-opacity="0.2" stroke-width="0.795"/>
<path d="M730.009 659.744L631.577 848" stroke="#B3B3B3" stroke-opacity="0.2" stroke-width="0.795"/>
<path d="M773.275 659.744L704.202 848" stroke="#B3B3B3" stroke-opacity="0.2" stroke-width="0.795"/>
<path d="M816.542 659.744L775.575 848" stroke="#B3B3B3" stroke-opacity="0.2" stroke-width="0.795"/>
<path d="M859.807 659.744L846.229 848" stroke="#B3B3B3" stroke-opacity="0.2" stroke-width="0.795"/>
<path d="M903.073 659.744L916.65 848" stroke="#B3B3B3" stroke-opacity="0.2" stroke-width="0.795"/>
<path d="M946.338 659.744L987.304 848" stroke="#B3B3B3" stroke-opacity="0.2" stroke-width="0.795"/>
<path d="M989.604 659.744L1058.68 848" stroke="#B3B3B3" stroke-opacity="0.2" stroke-width="0.795"/>
<path d="M1032.87 659.744L1131.3 848" stroke="#B3B3B3" stroke-opacity="0.2" stroke-width="0.795"/>
<path d="M1076.14 659.744L1205.81 848" stroke="#B3B3B3" stroke-opacity="0.2" stroke-width="0.795"/>
<path d="M1119.4 659.744L1282.98 848" stroke="#B3B3B3" stroke-opacity="0.2" stroke-width="0.795"/>
<path d="M1162.67 659.744L1363.84 848" stroke="#B3B3B3" stroke-opacity="0.2" stroke-width="0.795"/>
<path d="M1205.93 659.744L1449.8 848" stroke="#B3B3B3" stroke-opacity="0.2" stroke-width="0.795"/>
<path d="M1249.2 659.744L1542.88 848" stroke="#B3B3B3" stroke-opacity="0.2" stroke-width="0.795"/>
<path d="M513.68 188.256L220.001 -7.83872e-05" stroke="#B3B3B3" stroke-opacity="0.2" stroke-width="0.795"/>
<path d="M513.68 215.99L220.001 59.6647" stroke="#B3B3B3" stroke-opacity="0.2" stroke-width="0.795"/>
<path d="M513.68 243.725L220.001 114.767" stroke="#B3B3B3" stroke-opacity="0.2" stroke-width="0.795"/>
<path d="M513.68 271.459L220.001 166.602" stroke="#B3B3B3" stroke-opacity="0.2" stroke-width="0.795"/>
<path d="M513.68 299.194L220.001 216.071" stroke="#B3B3B3" stroke-opacity="0.2" stroke-width="0.795"/>
<path d="M513.68 326.929L220.001 263.832" stroke="#B3B3B3" stroke-opacity="0.2" stroke-width="0.795"/>
<path d="M513.68 354.664L220.001 310.386" stroke="#B3B3B3" stroke-opacity="0.2" stroke-width="0.795"/>
<path d="M513.68 382.398L220.001 356.137" stroke="#B3B3B3" stroke-opacity="0.2" stroke-width="0.795"/>
<path d="M513.68 410.132L220.001 401.416" stroke="#B3B3B3" stroke-opacity="0.2" stroke-width="0.795"/>
<path d="M513.68 437.867L220.001 446.584" stroke="#B3B3B3" stroke-opacity="0.2" stroke-width="0.795"/>
<path d="M513.68 465.602L220.001 491.862" stroke="#B3B3B3" stroke-opacity="0.2" stroke-width="0.795"/>
<path d="M513.68 493.336L220.001 537.614" stroke="#B3B3B3" stroke-opacity="0.2" stroke-width="0.795"/>
<path d="M513.68 521.071L220.001 584.168" stroke="#B3B3B3" stroke-opacity="0.2" stroke-width="0.795"/>
<path d="M513.68 548.806L220.001 631.929" stroke="#B3B3B3" stroke-opacity="0.2" stroke-width="0.795"/>
<path d="M513.68 576.54L220.001 681.398" stroke="#B3B3B3" stroke-opacity="0.2" stroke-width="0.795"/>
<path d="M513.68 604.274L220.001 733.233" stroke="#B3B3B3" stroke-opacity="0.2" stroke-width="0.795"/>
<path d="M513.68 632.009L220.001 788.335" stroke="#B3B3B3" stroke-opacity="0.2" stroke-width="0.795"/>
<path d="M513.68 659.744L220.001 848" stroke="#B3B3B3" stroke-opacity="0.2" stroke-width="0.795"/>
<path d="M1249.2 188.256L1542.88 0.000165753" stroke="#B3B3B3" stroke-opacity="0.2" stroke-width="0.795"/>
<path d="M1205.93 188.256L1449.8 0.000143119" stroke="#B3B3B3" stroke-opacity="0.2" stroke-width="0.795"/>
<path d="M1162.67 188.256L1363.84 0.000164611" stroke="#B3B3B3" stroke-opacity="0.2" stroke-width="0.795"/>
<path d="M1119.4 188.256L1282.98 0.000181676" stroke="#B3B3B3" stroke-opacity="0.2" stroke-width="0.795"/>
<path d="M1076.14 188.256L1205.81 0.00016711" stroke="#B3B3B3" stroke-opacity="0.2" stroke-width="0.795"/>
<path d="M1032.87 188.256L1131.3 0.000173329" stroke="#B3B3B3" stroke-opacity="0.2" stroke-width="0.795"/>
<path d="M989.604 188.256L1058.68 0.000190789" stroke="#B3B3B3" stroke-opacity="0.2" stroke-width="0.795"/>
<path d="M946.338 188.256L987.305 0.000188246" stroke="#B3B3B3" stroke-opacity="0.2" stroke-width="0.795"/>
<path d="M903.073 188.256L916.651 0.000192347" stroke="#B3B3B3" stroke-opacity="0.2" stroke-width="0.795"/>
<path d="M859.807 188.256L846.229 0.000192347" stroke="#B3B3B3" stroke-opacity="0.2" stroke-width="0.795"/>
<path d="M816.541 188.256L775.574 0.000188246" stroke="#B3B3B3" stroke-opacity="0.2" stroke-width="0.795"/>
<path d="M773.274 188.256L704.202 0.000190789" stroke="#B3B3B3" stroke-opacity="0.2" stroke-width="0.795"/>
<path d="M730.009 188.256L631.578 0.000173329" stroke="#B3B3B3" stroke-opacity="0.2" stroke-width="0.795"/>
<path d="M686.743 188.256L557.071 0.00016711" stroke="#B3B3B3" stroke-opacity="0.2" stroke-width="0.795"/>
<path d="M643.476 188.256L479.898 0.000181676" stroke="#B3B3B3" stroke-opacity="0.2" stroke-width="0.795"/>
<path d="M600.211 188.256L399.036 0.000164611" stroke="#B3B3B3" stroke-opacity="0.2" stroke-width="0.795"/>
<path d="M556.945 188.256L313.077 0.000143119" stroke="#B3B3B3" stroke-opacity="0.2" stroke-width="0.795"/>
<path d="M513.679 188.256L220 0.000287824" stroke="#B3B3B3" stroke-opacity="0.2" stroke-width="0.795"/>
<path d="M1249.2 659.744L1542.88 848" stroke="#B3B3B3" stroke-opacity="0.2" stroke-width="0.795"/>
<path d="M1249.2 632.01L1542.88 788.336" stroke="#B3B3B3" stroke-opacity="0.2" stroke-width="0.795"/>
<path d="M1249.2 604.275L1542.88 733.233" stroke="#B3B3B3" stroke-opacity="0.2" stroke-width="0.795"/>
<path d="M1249.2 576.54L1542.88 681.398" stroke="#B3B3B3" stroke-opacity="0.2" stroke-width="0.795"/>
<path d="M1249.2 548.806L1542.88 631.929" stroke="#B3B3B3" stroke-opacity="0.2" stroke-width="0.795"/>
<path d="M1249.2 521.072L1542.88 584.169" stroke="#B3B3B3" stroke-opacity="0.2" stroke-width="0.795"/>
<path d="M1249.2 493.337L1542.88 537.614" stroke="#B3B3B3" stroke-opacity="0.2" stroke-width="0.795"/>
<path d="M1249.2 465.602L1542.88 491.863" stroke="#B3B3B3" stroke-opacity="0.2" stroke-width="0.795"/>
<path d="M1249.2 437.868L1542.88 446.584" stroke="#B3B3B3" stroke-opacity="0.2" stroke-width="0.795"/>
<path d="M1249.2 410.133L1542.88 401.417" stroke="#B3B3B3" stroke-opacity="0.2" stroke-width="0.795"/>
<path d="M1249.2 382.399L1542.88 356.138" stroke="#B3B3B3" stroke-opacity="0.2" stroke-width="0.795"/>
<path d="M1249.2 354.664L1542.88 310.387" stroke="#B3B3B3" stroke-opacity="0.2" stroke-width="0.795"/>
<path d="M1249.2 326.929L1542.88 263.832" stroke="#B3B3B3" stroke-opacity="0.2" stroke-width="0.795"/>
<path d="M1249.2 299.195L1542.88 216.072" stroke="#B3B3B3" stroke-opacity="0.2" stroke-width="0.795"/>
<path d="M1249.2 271.46L1542.88 166.602" stroke="#B3B3B3" stroke-opacity="0.2" stroke-width="0.795"/>
<path d="M1249.2 243.726L1542.88 114.768" stroke="#B3B3B3" stroke-opacity="0.2" stroke-width="0.795"/>
<path d="M1249.2 215.991L1542.88 59.6652" stroke="#B3B3B3" stroke-opacity="0.2" stroke-width="0.795"/>
<path d="M1249.2 188.256L1542.88 0.000409894" stroke="#B3B3B3" stroke-opacity="0.2" stroke-width="0.795"/>
<path opacity="0.5" d="M245.44 401.74L379.53 405.98" stroke="url(#paint0_linear_44_217)" stroke-width="1.06"/>
<path opacity="0.5" d="M662.882 62.067L726.198 180.343" stroke="url(#paint1_linear_44_217)" stroke-width="1.06"/>
<path opacity="0.5" d="M1282.65 0.530029L1219.58 73.14" stroke="url(#paint2_linear_44_217)" stroke-width="1.06"/>
<path opacity="0.5" d="M643.47 722.39L677.92 672.57" stroke="url(#paint3_linear_44_217)" stroke-width="1.06"/>
<path opacity="0.5" d="M1358.44 843.23L1272.58 762.67" stroke="url(#paint4_linear_44_217)" stroke-width="1.06"/>
<path opacity="0.5" d="M1370.66 264.063L1304.88 282.897" stroke="url(#paint5_linear_44_217)" stroke-width="1.06"/>
</g>
<defs>
<filter id="filter0_f_44_217" x="315.4" y="-23.3198" width="1132.08" height="894.64" filterUnits="userSpaceOnUse" color-interpolation-filters="sRGB">
<feFlood flood-opacity="0" result="BackgroundImageFix"/>
<feBlend mode="normal" in="SourceGraphic" in2="BackgroundImageFix" result="shape"/>
<feGaussianBlur stdDeviation="106" result="effect1_foregroundBlur_44_217"/>
</filter>
<filter id="filter1_f_44_217" x="437.8" y="697.48" width="941.28" height="301.04" filterUnits="userSpaceOnUse" color-interpolation-filters="sRGB">
<feFlood flood-opacity="0" result="BackgroundImageFix"/>
<feBlend mode="normal" in="SourceGraphic" in2="BackgroundImageFix" result="shape"/>
<feGaussianBlur stdDeviation="53" result="effect1_foregroundBlur_44_217"/>
</filter>
<linearGradient id="paint0_linear_44_217" x1="245.44" y1="403.86" x2="379.53" y2="403.86" gradientUnits="userSpaceOnUse">
<stop stop-color="white" stop-opacity="0"/>
<stop offset="0.5" stop-color="white"/>
<stop offset="1" stop-color="white" stop-opacity="0"/>
</linearGradient>
<linearGradient id="paint1_linear_44_217" x1="661.045" y1="63.1261" x2="728.034" y2="179.284" gradientUnits="userSpaceOnUse">
<stop stop-color="white" stop-opacity="0"/>
<stop offset="0.5" stop-color="white"/>
<stop offset="1" stop-color="white" stop-opacity="0"/>
</linearGradient>
<linearGradient id="paint2_linear_44_217" x1="1281.59" y1="0.530029" x2="1219.12" y2="77.408" gradientUnits="userSpaceOnUse">
<stop offset="0.5" stop-color="white"/>
<stop offset="1" stop-color="white" stop-opacity="0"/>
</linearGradient>
<linearGradient id="paint3_linear_44_217" x1="677.92" y1="673.1" x2="644" y2="722.92" gradientUnits="userSpaceOnUse">
<stop stop-color="white" stop-opacity="0"/>
<stop offset="0.5" stop-color="white"/>
<stop offset="1" stop-color="white" stop-opacity="0"/>
</linearGradient>
<linearGradient id="paint4_linear_44_217" x1="1272.58" y1="763.2" x2="1358.44" y2="843.76" gradientUnits="userSpaceOnUse">
<stop stop-color="white" stop-opacity="0"/>
<stop offset="0.5" stop-color="white"/>
<stop offset="1" stop-color="white" stop-opacity="0"/>
</linearGradient>
<linearGradient id="paint5_linear_44_217" x1="1305.14" y1="283.055" x2="1370.92" y2="264.221" gradientUnits="userSpaceOnUse">
<stop stop-color="white" stop-opacity="0"/>
<stop offset="0.5" stop-color="white"/>
<stop offset="1" stop-color="white" stop-opacity="0"/>
</linearGradient>
<clipPath id="clip0_44_217">
<rect width="1815" height="848" fill="white"/>
</clipPath>
</defs>
</svg>
