<svg width="16" height="18" viewBox="0 0 16 18" fill="none" xmlns="http://www.w3.org/2000/svg">
<g clip-path="url(#clip0_518_6171)">
<path d="M8 10.5C8.39782 10.5 8.77936 10.342 9.06066 10.0607C9.34196 9.77936 9.5 9.39782 9.5 9C9.5 8.60218 9.34196 8.22064 9.06066 7.93934C8.77936 7.65804 8.39782 7.5 8 7.5C7.60218 7.5 7.22064 7.65804 6.93934 7.93934C6.65804 8.22064 6.5 8.60218 6.5 9C6.5 9.39782 6.65804 9.77936 6.93934 10.0607C7.22064 10.342 7.60218 10.5 8 10.5Z" fill="#54FF54"/>
<path d="M8 1C10.1217 1 12.1566 1.84285 13.6569 3.34315C15.1571 4.84344 16 6.87827 16 9C16 11.1217 15.1571 13.1566 13.6569 14.6569C12.1566 16.1571 10.1217 17 8 17C5.87827 17 3.84344 16.1571 2.34315 14.6569C0.842855 13.1566 0 11.1217 0 9C0 6.87827 0.842855 4.84344 2.34315 3.34315C3.84344 1.84285 5.87827 1 8 1ZM1.5 9C1.5 10.7239 2.18482 12.3772 3.40381 13.5962C4.62279 14.8152 6.27609 15.5 8 15.5C9.72391 15.5 11.3772 14.8152 12.5962 13.5962C13.8152 12.3772 14.5 10.7239 14.5 9C14.5 7.27609 13.8152 5.62279 12.5962 4.40381C11.3772 3.18482 9.72391 2.5 8 2.5C6.27609 2.5 4.62279 3.18482 3.40381 4.40381C2.18482 5.62279 1.5 7.27609 1.5 9Z" fill="#54FF54"/>
</g>
<defs>
<clipPath id="clip0_518_6171">
<rect width="16" height="16" fill="white" transform="translate(0 1)"/>
</clipPath>
</defs>
</svg>
