<svg width="16" height="18" viewBox="0 0 16 18" fill="none" xmlns="http://www.w3.org/2000/svg">
<path d="M1.50003 4.25002C1.50015 3.83756 1.61366 3.43306 1.82813 3.08074C2.04261 2.72842 2.34981 2.44183 2.71615 2.2523C3.0825 2.06277 3.49389 1.97759 3.90538 2.00607C4.31686 2.03455 4.7126 2.17559 5.04934 2.41378C5.38609 2.65197 5.65088 2.97814 5.81477 3.35665C5.97867 3.73516 6.03537 4.15144 5.97867 4.55999C5.92197 4.96854 5.75406 5.35365 5.49328 5.67322C5.23251 5.99279 4.88891 6.23453 4.50003 6.37202V11.628C5.00072 11.805 5.42273 12.1532 5.69148 12.6112C5.96023 13.0692 6.0584 13.6075 5.96864 14.1309C5.87888 14.6543 5.60698 15.1291 5.20099 15.4714C4.79499 15.8137 4.28106 16.0014 3.75003 16.0014C3.219 16.0014 2.70506 15.8137 2.29907 15.4714C1.89308 15.1291 1.62117 14.6543 1.53142 14.1309C1.44166 13.6075 1.53983 13.0692 1.80858 12.6112C2.07732 12.1532 2.49934 11.805 3.00003 11.628V6.37202C2.56124 6.21689 2.18136 5.92951 1.91271 5.54946C1.64407 5.16942 1.49989 4.71543 1.50003 4.25002ZM7.17703 4.07302L9.57303 1.67702C9.60799 1.64197 9.65258 1.61809 9.70113 1.6084C9.74969 1.59872 9.80002 1.60367 9.84576 1.62263C9.8915 1.64159 9.93057 1.6737 9.95804 1.7149C9.9855 1.75609 10.0001 1.80451 10 1.85402V3.50002H11C11.6631 3.50002 12.299 3.76342 12.7678 4.23226C13.2366 4.7011 13.5 5.33698 13.5 6.00002V11.628C14.0007 11.805 14.4227 12.1532 14.6915 12.6112C14.9602 13.0692 15.0584 13.6075 14.9686 14.1309C14.8789 14.6543 14.607 15.1291 14.201 15.4714C13.795 15.8137 13.2811 16.0014 12.75 16.0014C12.219 16.0014 11.7051 15.8137 11.2991 15.4714C10.8931 15.1291 10.6212 14.6543 10.5314 14.1309C10.4417 13.6075 10.5398 13.0692 10.8086 12.6112C11.0773 12.1532 11.4993 11.805 12 11.628V6.00002C12 5.73481 11.8947 5.48045 11.7071 5.29292C11.5196 5.10538 11.2652 5.00002 11 5.00002H10V6.64602C10.0001 6.69553 9.9855 6.74396 9.95804 6.78515C9.93057 6.82634 9.8915 6.85846 9.84576 6.87742C9.80002 6.89637 9.74969 6.90133 9.70113 6.89164C9.65258 6.88196 9.60799 6.85808 9.57303 6.82302L7.17703 4.42702C7.15375 4.4038 7.13528 4.37621 7.12267 4.34584C7.11007 4.31547 7.10358 4.28291 7.10358 4.25002C7.10358 4.21714 7.11007 4.18458 7.12267 4.15421C7.13528 4.12383 7.15375 4.09625 7.17703 4.07302ZM3.75003 3.50002C3.55112 3.50002 3.36035 3.57904 3.2197 3.71969C3.07905 3.86035 3.00003 4.05111 3.00003 4.25002C3.00003 4.44894 3.07905 4.6397 3.2197 4.78035C3.36035 4.92101 3.55112 5.00002 3.75003 5.00002C3.94894 5.00002 4.13971 4.92101 4.28036 4.78035C4.42101 4.6397 4.50003 4.44894 4.50003 4.25002C4.50003 4.05111 4.42101 3.86035 4.28036 3.71969C4.13971 3.57904 3.94894 3.50002 3.75003 3.50002ZM3.75003 13C3.55112 13 3.36035 13.079 3.2197 13.2197C3.07905 13.3603 3.00003 13.5511 3.00003 13.75C3.00003 13.9489 3.07905 14.1397 3.2197 14.2804C3.36035 14.421 3.55112 14.5 3.75003 14.5C3.94894 14.5 4.13971 14.421 4.28036 14.2804C4.42101 14.1397 4.50003 13.9489 4.50003 13.75C4.50003 13.5511 4.42101 13.3603 4.28036 13.2197C4.13971 13.079 3.94894 13 3.75003 13ZM12 13.75C12 13.9489 12.079 14.1397 12.2197 14.2804C12.3604 14.421 12.5511 14.5 12.75 14.5C12.9489 14.5 13.1397 14.421 13.2804 14.2804C13.421 14.1397 13.5 13.9489 13.5 13.75C13.5 13.5511 13.421 13.3603 13.2804 13.2197C13.1397 13.079 12.9489 13 12.75 13C12.5511 13 12.3604 13.079 12.2197 13.2197C12.079 13.3603 12 13.5511 12 13.75Z" fill="#54FF54"/>
</svg>
